<svg xmlns="http://www.w3.org/2000/svg" xmlns:xlink="http://www.w3.org/1999/xlink" viewBox="0 0 717.34 754.18"><defs><style>.cls-1{fill:#935f5f;}.cls-2{fill:#e9fffd;}.cls-3{fill:#62e869;}.cls-4{fill:#9bf99d;}.cls-5{font-size:100px;fill:#a6ffaa;font-family:Calibri-Bold, Calibri;font-weight:700;}.cls-6{letter-spacing:-0.01em;}.cls-7{fill:url(#Безымянный_градиент_2);}.cls-8{fill:none;stroke:#ffccdc;stroke-miterlimit:10;stroke-width:2px;}.cls-9{fill:#efacac;}.cls-10{fill:#b6fce2;opacity:0.6;}</style><radialGradient id="Безымянный_градиент_2" cx="358.67" cy="377.09" r="367.99" gradientUnits="userSpaceOnUse"><stop offset="0.49" stop-color="#7cd659"/><stop offset="0.49" stop-color="#78d459"/><stop offset="0.61" stop-color="#4eb858"/><stop offset="0.72" stop-color="#2ca258"/><stop offset="0.82" stop-color="#149357"/><stop offset="0.92" stop-color="#058957"/><stop offset="1" stop-color="#008657"/></radialGradient></defs><title>Ресурс 5</title><g id="Слой_2" data-name="Слой 2"><g id="Слой_1-2" data-name="Слой 1"><path class="cls-1" d="M422.46,563.12c0,9.71-11.3,22.56-26.18,31a35,35,0,0,0-60.81.26c-14.8-8.17-26-20.57-26-30.25,0-15.81,30-18.34,56.52-18.34S422.46,547.31,422.46,563.12Z"/><path class="cls-2" d="M299.31,420.29a104,104,0,1,1,0-54.38,78.33,78.33,0,1,0,0,54.38Z"/><path class="cls-3" d="M197.85,389.54a37.84,37.84,0,0,1-1.67-5.42,25.93,25.93,0,1,0,31.74-40.94c-8.54-6.92-19.79-9.34-30-5.33-15.76,6.2-23,25.38-16.08,42.84,4.51,11.47,14,19.34,24.4,21.64A36.75,36.75,0,0,1,197.85,389.54Z"/><circle class="cls-4" cx="215.68" cy="399.79" r="3.63"/><circle class="cls-4" cx="226.77" cy="396.15" r="2.96"/><circle class="cls-4" cx="234.51" cy="390.41" r="2.39"/><circle class="cls-4" cx="239.52" cy="384.49" r="1.92"/><circle class="cls-4" cx="242.14" cy="378.76" r="1.36"/><path class="cls-3" d="M140.76,280.33a81.47,81.47,0,0,1,12.66-7.93,113.44,113.44,0,0,1,13.82-6,114.79,114.79,0,0,1,14.64-4.08,111.83,111.83,0,0,1,15.21-2c5.12-.34,10.32-.66,15.53-.5a49.54,49.54,0,0,1,15.29,2.86,65.16,65.16,0,0,1,7.17,3.08c1.15.6,2.32,1.16,3.44,1.82s2.21,1.37,3.3,2.08a55.24,55.24,0,0,1,6.18,4.77,34.42,34.42,0,0,1,2.81,2.78,39.33,39.33,0,0,1,2.6,3l-.74,1.42c-2.72,0-5.21-.33-7.7-.57s-4.86-.64-7.25-.89c-1.18-.15-2.36-.32-3.51-.52s-2.33-.31-3.48-.47c-2.28-.41-4.58-.63-6.81-1-4.52-.62-8.88-1.61-13.32-2.64l-1.66-.43-1.67-.36c-1.12-.23-2.24-.52-3.37-.72l-3.4-.55c-1.14-.18-2.28-.24-3.43-.35a127.43,127.43,0,0,0-27.87,1,118.76,118.76,0,0,0-13.95,2.87c-2.31.61-4.61,1.3-6.88,2.07s-4.56,1.6-6.74,2.54Z"/><text class="cls-5" transform="translate(309.52 430.08)">hi<tspan class="cls-6" x="78.22" y="0">k</tspan><tspan x="125" y="0">ubi</tspan></text><path class="cls-3" d="M439.87,467a62.57,62.57,0,0,1,8.08-5.61c2.79-1.67,5.67-3.17,8.6-4.56A125.57,125.57,0,0,1,474.67,450,144.24,144.24,0,0,1,513,444.39c1.62,0,3.25,0,4.87.06s3.25,0,4.87.17c3.24.21,6.49.47,9.71.89,1.61.19,3.22.48,4.83.72s3.21.54,4.8.89,3.19.66,4.77,1l4.72,1.29c1.57.39,3.12.93,4.66,1.46s3.09,1,4.6,1.63c3,1.23,6,2.43,8.94,3.93,1.45.76,2.91,1.45,4.33,2.26s2.81,1.65,4.19,2.53a70.9,70.9,0,0,1,7.92,5.79l-.43,1.12A182.26,182.26,0,0,0,568,462.72c-3-.84-6-1.42-9-2.12-1.51-.31-3-.57-4.54-.86l-2.27-.42-2.28-.35c-6.08-1-12.22-1.62-18.36-2.09s-12.31-.55-18.48-.49a250.45,250.45,0,0,0-36.83,3.21q-9.14,1.45-18.16,3.59a181.52,181.52,0,0,0-17.81,5Z"/><path class="cls-7" d="M696.33,294.79a41,41,0,0,0,13.47-7.71c.49-.43,1-1,.64-1.75A3.51,3.51,0,0,0,709,284.1a219.92,219.92,0,0,1-19.36-13.33,82.72,82.72,0,0,0,26.07-20,99.44,99.44,0,0,1-32.4,5,65.33,65.33,0,0,0,3-28.58,51.11,51.11,0,0,1-16.11,11.07q-4.71-8.23-9.84-16.17a45,45,0,0,0,9.35-2.53c1-.38,2.09-1,2.1-2.06a26.66,26.66,0,0,1-18.69-6.21q-2.23-3.2-4.53-6.35a78.69,78.69,0,0,0,19,3.17c-10.72-6-21.58-12.08-30.51-20.46,33.35-24.07,59.61-84.46,10.42-67-12.82,4.56-26.91,6.9-41,7.8C640.15,89.58,656,15.35,600.69,47c-39.44,22.59-93.47,27.91-129.81,28.6a356.22,356.22,0,0,0-77-16.07l3.42-1.63c13.71-6.53,27.86-13.17,43-14a302.37,302.37,0,0,0-64.65,2.47A177,177,0,0,1,390.64,0c-11.35,17.19-22.72,34.43-32.58,52.49-1.55-1.15-3.16-2.21-4.81-3.2-13.53-8.1-29-12.41-44.45-15.48a134.8,134.8,0,0,1,32.66,24.52A356.8,356.8,0,0,0,246.72,76c-36.33-.77-89.74-6.2-128.83-28.58C62.62,15.73,78.44,90,112,128.9c-14.11-.9-28.21-3.24-41-7.8-49.35-17.56-22.77,43.26,10.73,67.17-8.8,8.07-19.39,14-29.84,19.86a78.67,78.67,0,0,0,17.94-2.86q-2,2.76-4,5.56a26.78,26.78,0,0,1-19.35,6.75c0,1,1.13,1.68,2.1,2.06a45,45,0,0,0,9.6,2.57q-5.19,8-10,16.39a51.38,51.38,0,0,1-18.86-12.17,65.33,65.33,0,0,0,3,28.58A99.44,99.44,0,0,1,0,250a82.72,82.72,0,0,0,26.07,20A219.93,219.93,0,0,1,6.7,283.31a3.51,3.51,0,0,0-1.39,1.23c-.35.73.15,1.32.64,1.75a42.08,42.08,0,0,0,16.35,8.62,357.36,357.36,0,0,0-21,121c0,156.58,100.52,289.68,240.56,338.29C126.72,707.69,45.45,594.84,45.45,463c0-145.22,98.62-267.38,232.53-303.22,5-.35,9.87-.94,14.71-1.75a157.24,157.24,0,0,1-36.33,14.5,161.66,161.66,0,0,0,53.84-2.91,77.15,77.15,0,0,1-9,15.77c19.44-8.5,34.78-21.28,43.41-35.93l1.93-.07c-.43,18.4,6.56,36.9,20.29,52.73a83,83,0,0,1,3-22c16.75,11.51,37.56,20.25,60.23,25a127,127,0,0,1-29.87-31.46,157.85,157.85,0,0,0,24.81,11.66,103.26,103.26,0,0,1-19.68-32.91l.23,0c13.07,9.32,29.56,16.39,47.59,20.2a104,104,0,0,1-14.75-13.54C573.51,194.23,673.23,317,673.23,463c0,131.84-81.27,244.69-196.45,291.18,140-48.61,240.56-181.71,240.56-338.29A357.35,357.35,0,0,0,696.33,294.79ZM636.72,189.55l-.81-1,.34-.23Z"/><line class="cls-8" x1="502.05" y1="494.2" x2="551.05" y2="543.2"/><line class="cls-8" x1="496.23" y1="518.7" x2="540.22" y2="562.69"/><line class="cls-8" x1="539.79" y1="483.23" x2="583.78" y2="527.22"/><line class="cls-8" x1="496.23" y1="540.69" x2="520.79" y2="565.26"/><line class="cls-8" x1="518.23" y1="487.2" x2="575.89" y2="544.86"/><path class="cls-9" d="M396.28,594.14C386.94,599.46,376.2,603,366,603s-21.11-3.47-30.49-8.65a35,35,0,0,1,60.81-.26Z"/><circle class="cls-10" cx="191.73" cy="351.61" r="13.24"/><circle class="cls-10" cx="214.24" cy="359.85" r="9.27"/><circle class="cls-10" cx="201.01" cy="370.49" r="5.64"/></g></g></svg>